<svg xmlns="http://www.w3.org/2000/svg" width="1600" height="900" viewBox="0 0 1600 900"><defs><radialGradient id="g" cx="50%" cy="20%" r="80%"><stop offset="0" stop-color="#163563"/><stop offset=".62" stop-color="#071326"/><stop offset="1" stop-color="#02050d"/></radialGradient></defs><rect width="1600" height="900" fill="url(#g)"/><rect x="70" y="70" width="1460" height="150" rx="28" fill="#071326" stroke="#69dcff" stroke-width="3"/><text x="110" y="132" fill="#7beeb0" font-family="Arial,sans-serif" font-size="30" font-weight="700">QDL ENTRY ANIMATION · STRUCTURAL ADMISSIBILITY</text><text x="110" y="190" fill="#eef7ff" font-family="Arial,sans-serif" font-size="58" font-weight="800">QDL Structural Admissibility in 5 Minutes</text><rect x="90" y="285" width="410" height="330" rx="28" fill="#071326" stroke="#69dcff" stroke-width="3"/><text x="295" y="345" text-anchor="middle" fill="#69dcff" font-family="Arial,sans-serif" font-size="32" font-weight="800">REAL CONSTRUCTION</text><ellipse cx="295" cy="470" rx="145" ry="62" fill="none" stroke="#69dcff" stroke-width="5"/><circle cx="295" cy="470" r="35" fill="#ffc35e"/><circle cx="420" cy="440" r="15" fill="#7beeb0"/><text x="295" y="575" text-anchor="middle" fill="#eef7ff" font-family="Arial,sans-serif" font-size="34">μ = a³n²</text><path d="M525 450 L650 450" stroke="#7beeb0" stroke-width="8"/><path d="M650 450 l-30 -20 v40 z" fill="#7beeb0"/><rect x="680" y="285" width="830" height="330" rx="28" fill="#071326" stroke="#7beeb0" stroke-width="3"/><text x="1095" y="345" text-anchor="middle" fill="#7beeb0" font-family="Arial,sans-serif" font-size="32" font-weight="800">DECLARE BEFORE CLASSIFYING</text><g font-family="Arial,sans-serif" font-size="28" fill="#eef7ff"><text x="730" y="410">Basis:  B = (L₁, L₂, L₃, F₁, F₂)</text><text x="730" y="465">Target: q = (1, 1, 1, 1, 1)</text><text x="730" y="520">Transforms: P ↔ n; declared factor operations</text><text x="730" y="575">Scope: canonical public structural audit</text></g><rect x="180" y="690" width="1240" height="120" rx="28" fill="#071326" stroke="#b9a7ff" stroke-width="3"/><text x="800" y="747" text-anchor="middle" fill="#b9a7ff" font-family="Arial,sans-serif" font-size="34" font-weight="800">DECLARE → ENCODE → TEST → CLASSIFY</text><text x="800" y="790" text-anchor="middle" fill="#eef7ff" font-family="Arial,sans-serif" font-size="28">Physics · Metrology · Model Governance</text></svg>